<?xml version="1.0" encoding="utf-8"?>
<!-- Generator: Adobe Illustrator 17.0.0, SVG Export Plug-In . SVG Version: 6.00 Build 0)  -->
<!DOCTYPE svg PUBLIC "-//W3C//DTD SVG 1.1//EN" "http://www.w3.org/Graphics/SVG/1.1/DTD/svg11.dtd">
<svg version="1.1" id="Capa_1" xmlns="http://www.w3.org/2000/svg" xmlns:xlink="http://www.w3.org/1999/xlink" x="0px" y="0px"
	 width="20px" height="20px" viewBox="124.416 124.416 20 20" enable-background="new 124.416 124.416 20 20" xml:space="preserve">
<g>
	<path fill="#FFFFFF" d="M124.689,135.074l5.952,5.952c0.363,0.363,0.952,0.363,1.315,0c0.363-0.363,0.363-0.952,0-1.315
		l-4.364-4.364h15.895c0.514,0,0.93-0.416,0.93-0.93c0-0.513-0.416-0.93-0.93-0.93h-15.895l4.364-4.364
		c0.363-0.363,0.363-0.952,0-1.315c-0.182-0.181-0.42-0.272-0.658-0.272s-0.476,0.091-0.658,0.272l-5.952,5.952
		C124.325,134.122,124.325,134.711,124.689,135.074z"/>
</g>
</svg>
