<?xml version="1.0" encoding="utf-8"?>
<!-- Generator: Adobe Illustrator 17.0.0, SVG Export Plug-In . SVG Version: 6.00 Build 0)  -->
<!DOCTYPE svg PUBLIC "-//W3C//DTD SVG 1.1//EN" "http://www.w3.org/Graphics/SVG/1.1/DTD/svg11.dtd">
<svg version="1.1" id="Camada_1" xmlns="http://www.w3.org/2000/svg" xmlns:xlink="http://www.w3.org/1999/xlink" x="0px" y="0px"
	 width="40px" height="40px" viewBox="0 0 40 40" enable-background="new 0 0 40 40" xml:space="preserve">
<g>
	<path fill="#79C441" d="M31.768,15.175L18.579,28.363c-0.977,0.977-2.561,0.977-3.538,0l-6.808-6.809
		c-0.977-0.977-0.977-2.561,0-3.538c0.977-0.977,2.561-0.977,3.538,0l5.04,5.04l11.419-11.419c0.977-0.977,2.561-0.976,3.538,0
		C32.744,12.614,32.744,14.198,31.768,15.175z"/>
</g>
<g>
	<path fill="#79C441" d="M20,3c9.374,0,17,7.626,17,17s-7.626,17-17,17S3,29.374,3,20S10.626,3,20,3 M20,0C8.954,0,0,8.954,0,20
		c0,11.046,8.954,20,20,20c11.046,0,20-8.954,20-20C40,8.954,31.046,0,20,0L20,0z"/>
</g>
</svg>
