<?xml version="1.0" encoding="utf-8"?>
<!-- Generator: Adobe Illustrator 17.0.0, SVG Export Plug-In . SVG Version: 6.00 Build 0)  -->
<!DOCTYPE svg PUBLIC "-//W3C//DTD SVG 1.1//EN" "http://www.w3.org/Graphics/SVG/1.1/DTD/svg11.dtd">
<svg version="1.1" id="Capa_1" xmlns="http://www.w3.org/2000/svg" xmlns:xlink="http://www.w3.org/1999/xlink" x="0px" y="0px"
	 width="15px" height="15px" viewBox="298.505 298.505 15 15" enable-background="new 298.505 298.505 15 15" xml:space="preserve">
<g>
	<g id="_x34__4_">
		<g>
			<path fill="#FFFFFF" d="M313.363,312.689l-3.873-3.811c1.014-1.102,1.637-2.559,1.637-4.163c0-3.43-2.826-6.211-6.311-6.211
				c-3.486,0-6.311,2.78-6.311,6.211c0,3.43,2.825,6.211,6.311,6.211c1.506,0,2.887-0.521,3.972-1.387l3.888,3.826
				c0.189,0.187,0.497,0.187,0.686,0C313.552,313.178,313.552,312.875,313.363,312.689z M304.816,309.97
				c-2.949,0-5.34-2.353-5.34-5.255s2.391-5.255,5.34-5.255s5.34,2.353,5.34,5.255S307.765,309.97,304.816,309.97z"/>
		</g>
	</g>
</g>
</svg>
