<?xml version="1.0" encoding="utf-8"?>
<!-- Generator: Adobe Illustrator 17.0.0, SVG Export Plug-In . SVG Version: 6.00 Build 0)  -->
<!DOCTYPE svg PUBLIC "-//W3C//DTD SVG 1.1//EN" "http://www.w3.org/Graphics/SVG/1.1/DTD/svg11.dtd">
<svg version="1.1" id="Capa_1" xmlns="http://www.w3.org/2000/svg" xmlns:xlink="http://www.w3.org/1999/xlink" x="0px" y="0px"
	 width="40px" height="40px" viewBox="209.663 209.663 40 40" enable-background="new 209.663 209.663 40 40" xml:space="preserve">
<g>
	<path fill="#242424" d="M239.663,229.663c0,0.967-0.783,1.75-1.751,1.75h-6.499v6.5c0,0.967-0.784,1.75-1.75,1.75
		c-0.483,0-0.921-0.196-1.237-0.512c-0.317-0.317-0.513-0.754-0.512-1.237l0-6.501h-6.5c-0.483,0-0.92-0.196-1.237-0.513
		c-0.316-0.316-0.512-0.754-0.512-1.237c0-0.967,0.783-1.75,1.75-1.75h6.5v-6.5c0-0.967,0.784-1.751,1.751-1.751
		c0.966,0,1.749,0.783,1.75,1.75v6.5h6.5C238.88,227.913,239.662,228.696,239.663,229.663z"/>
</g>
<g>
	<path fill="#242424" d="M229.663,212.663c9.374,0,17,7.626,17,17c0,9.374-7.626,17-17,17s-17-7.626-17-17
		C212.663,220.289,220.289,212.663,229.663,212.663 M229.663,209.663c-11.046,0-20,8.954-20,20s8.954,20,20,20
		c11.046,0,20-8.954,20-20S240.708,209.663,229.663,209.663L229.663,209.663z"/>
</g>
</svg>
